<?xml version="1.0" standalone="no"?>
<!DOCTYPE svg PUBLIC "-//W3C//DTD SVG 20010904//EN"
 "http://www.w3.org/TR/2001/REC-SVG-20010904/DTD/svg10.dtd">
<svg version="1.0" xmlns="http://www.w3.org/2000/svg"
 width="2048.000000pt" height="2048.000000pt" viewBox="0 0 2048.000000 2048.000000"
 preserveAspectRatio="xMidYMid meet">
<metadata>
Created by potrace 1.14, written by Peter Selinger 2001-2017
</metadata>
<g transform="translate(0.000000,2048.000000) scale(0.100000,-0.100000)"
fill="#000000" stroke="none">
<path d="M10078 20475 c-2 -1 -68 -6 -148 -10 -80 -4 -161 -8 -180 -10 -19 -1
-76 -5 -126 -9 -50 -3 -106 -8 -125 -10 -19 -3 -63 -8 -99 -11 -36 -3 -99 -9
-140 -15 -41 -5 -97 -12 -125 -15 -27 -3 -61 -8 -75 -10 -31 -5 -282 -43 -330
-50 -19 -3 -57 -10 -85 -16 -27 -5 -66 -12 -85 -15 -47 -7 -300 -60 -375 -79
-33 -8 -127 -31 -210 -51 -691 -169 -1400 -431 -2065 -764 -129 -64 -252 -127
-272 -138 -21 -12 -68 -38 -105 -58 -37 -20 -105 -59 -149 -85 -45 -27 -85
-49 -88 -49 -4 0 -19 -8 -34 -19 -15 -10 -81 -52 -147 -92 -66 -40 -199 -125
-295 -189 -149 -99 -225 -152 -400 -277 -61 -44 -342 -262 -409 -317 -150
-124 -172 -142 -306 -261 -367 -323 -804 -771 -1070 -1096 -11 -13 -52 -63
-90 -109 -39 -47 -102 -125 -140 -175 -39 -49 -74 -94 -78 -100 -5 -5 -46 -62
-93 -125 -46 -63 -88 -119 -92 -125 -4 -5 -53 -75 -107 -155 -87 -126 -131
-193 -253 -385 -14 -22 -33 -51 -42 -65 -17 -26 -189 -322 -232 -400 -14 -25
-46 -85 -73 -135 -26 -49 -56 -105 -67 -122 -11 -18 -16 -33 -13 -33 4 0 2 -6
-4 -14 -17 -21 -151 -293 -226 -461 -37 -82 -75 -168 -85 -190 -10 -22 -34
-80 -54 -130 -21 -49 -44 -104 -52 -122 -7 -17 -14 -37 -14 -45 0 -8 -4 -18
-9 -23 -4 -6 -23 -50 -41 -100 -18 -49 -39 -108 -48 -130 -18 -50 -122 -355
-128 -375 -2 -8 -24 -82 -49 -165 -36 -118 -115 -403 -140 -505 -13 -55 -35
-152 -39 -171 -3 -13 -18 -87 -35 -164 -34 -160 -87 -452 -106 -590 -3 -22 -7
-51 -10 -65 -2 -14 -7 -47 -10 -75 -3 -27 -8 -63 -10 -80 -2 -16 -7 -57 -10
-90 -3 -33 -8 -73 -10 -90 -3 -16 -9 -86 -15 -155 -6 -69 -13 -145 -15 -170
-5 -51 -15 -229 -20 -365 -6 -133 -6 -643 0 -770 4 -97 8 -183 20 -361 5 -69
14 -180 20 -229 2 -22 7 -67 10 -100 6 -62 34 -295 40 -324 1 -9 6 -41 10 -71
4 -30 9 -64 11 -75 3 -11 9 -49 14 -85 5 -36 12 -78 15 -95 13 -67 37 -201 40
-215 22 -115 92 -423 119 -530 2 -8 14 -53 26 -100 99 -391 330 -1067 465
-1365 8 -16 25 -58 39 -91 14 -34 46 -105 71 -159 25 -53 45 -99 45 -102 0
-18 267 -536 378 -733 36 -63 75 -134 88 -156 93 -167 380 -606 514 -789 128
-174 246 -332 255 -341 5 -6 24 -29 40 -50 40 -51 162 -200 190 -233 13 -14
55 -64 95 -111 217 -254 527 -573 850 -874 40 -37 243 -215 309 -271 14 -11
41 -34 60 -50 20 -17 59 -48 86 -70 28 -22 57 -45 65 -52 8 -6 53 -42 100 -78
47 -36 92 -72 100 -78 16 -13 242 -177 320 -233 92 -65 349 -234 470 -308 69
-42 132 -80 140 -86 25 -15 122 -71 170 -98 25 -14 50 -28 55 -32 9 -7 40 -24
215 -118 474 -255 1098 -521 1620 -690 290 -94 759 -223 899 -247 19 -3 38 -8
41 -10 10 -6 285 -61 450 -90 25 -4 84 -15 105 -19 11 -2 43 -7 70 -10 28 -4
75 -11 105 -16 30 -5 78 -12 105 -15 28 -4 61 -8 75 -11 14 -2 50 -6 80 -9 30
-3 69 -8 85 -10 17 -2 59 -7 95 -10 36 -3 81 -8 100 -10 34 -4 121 -11 245
-20 367 -27 1184 -27 1480 -1 17 2 82 7 145 11 63 4 122 8 130 10 8 2 53 6
100 10 47 3 96 8 110 10 14 2 53 7 87 10 34 3 71 8 83 10 12 2 48 7 79 10 31
4 67 8 80 10 13 3 45 7 70 10 25 4 98 15 161 26 63 10 133 21 155 24 22 4 47
8 55 10 8 2 31 7 50 10 31 5 89 15 160 29 14 3 43 10 65 15 22 6 56 13 75 16
31 5 74 15 145 31 11 3 31 7 45 10 14 3 112 27 218 54 170 44 259 69 446 127
27 8 57 16 65 18 29 6 363 122 486 168 186 70 390 154 605 249 77 34 461 225
545 271 179 97 221 121 247 139 14 10 29 18 32 18 3 0 99 58 214 129 721 449
1378 999 1927 1615 39 44 75 84 80 90 50 53 291 348 367 451 4 6 18 24 31 40
134 170 465 666 590 885 168 295 366 681 457 890 18 41 43 98 55 125 13 28 53
124 90 215 36 91 70 174 75 185 34 79 165 465 225 660 49 161 125 432 140 505
2 8 15 62 30 120 14 58 28 115 31 128 2 13 15 74 29 135 13 62 26 126 29 142
63 332 104 580 121 725 3 25 7 61 10 80 25 191 39 328 60 585 10 123 25 387
30 535 6 159 6 723 0 850 -11 242 -20 404 -30 505 -2 28 -7 82 -10 120 -6 73
-23 235 -30 295 -3 19 -7 53 -10 75 -5 42 -8 71 -25 200 -13 100 -21 156 -25
175 -2 8 -7 40 -11 70 -4 30 -9 58 -10 63 -1 4 -2 11 -3 15 0 5 -2170 8 -4821
8 l-4820 0 -1 -25 c-4 -148 -1 -3813 4 -3817 3 -3 1244 -6 2756 -6 1513 0
2753 -3 2755 -7 6 -10 -60 -282 -105 -436 -59 -201 -122 -371 -216 -585 -60
-136 -177 -365 -199 -391 -8 -9 -12 -18 -9 -21 3 -3 -1 -11 -10 -18 -8 -7 -15
-16 -15 -21 0 -11 -145 -237 -213 -334 -236 -332 -527 -648 -835 -906 -130
-110 -123 -105 -197 -159 -33 -25 -62 -48 -65 -51 -9 -10 -224 -155 -310 -209
-275 -173 -583 -329 -899 -456 -119 -49 -459 -168 -508 -179 -10 -2 -34 -9
-53 -15 -86 -27 -403 -104 -469 -115 -19 -3 -37 -8 -40 -10 -4 -2 -27 -6 -51
-10 -25 -3 -76 -12 -115 -20 -38 -8 -92 -16 -120 -20 -27 -3 -57 -7 -65 -10
-8 -2 -40 -6 -70 -10 -63 -6 -122 -13 -165 -19 -16 -3 -66 -8 -110 -11 -44 -3
-96 -8 -115 -10 -211 -24 -878 -24 -1072 0 -18 3 -62 7 -98 10 -36 3 -76 7
-90 10 -14 2 -45 6 -70 9 -63 7 -224 33 -290 46 -30 6 -68 13 -85 16 -16 3
-88 18 -160 35 -71 17 -139 32 -149 34 -61 14 -381 108 -421 125 -11 4 -85 32
-165 60 -455 164 -889 392 -1350 707 -146 100 -462 349 -575 454 -22 21 -51
47 -65 59 -55 47 -300 292 -375 375 -44 49 -89 99 -101 111 -12 12 -50 57 -85
100 -66 81 -97 118 -114 138 -5 6 -23 29 -40 51 -16 22 -33 45 -38 50 -144
172 -438 640 -593 945 -137 268 -245 518 -333 775 -23 66 -49 140 -58 165 -10
25 -18 50 -19 55 -1 6 -18 63 -38 128 -35 116 -96 351 -112 432 -4 22 -8 45
-10 50 -8 31 -54 303 -64 375 -6 47 -13 96 -15 110 -2 14 -7 57 -11 95 -3 39
-8 81 -9 95 -27 224 -27 836 0 1085 1 17 6 62 10 100 3 39 8 82 11 96 2 15 6
47 9 70 3 24 10 73 16 109 6 36 12 74 13 85 2 11 6 34 9 50 4 17 9 44 12 60 4
25 37 186 50 245 34 152 105 406 165 590 38 114 127 359 139 381 5 8 21 47 36
85 85 214 263 561 428 836 100 167 436 644 477 678 3 3 39 45 80 95 185 222
434 477 655 670 143 125 148 128 195 165 55 43 79 62 94 75 6 6 62 48 123 93
456 335 953 605 1473 799 80 30 150 56 155 57 6 1 69 21 140 44 184 58 404
116 565 148 14 2 36 7 50 9 88 18 174 33 230 40 25 3 52 8 60 10 8 2 39 7 69
10 30 4 61 8 70 10 9 1 52 6 96 10 44 4 94 9 110 11 220 23 913 23 1033 -1 10
-2 54 -6 98 -9 43 -4 86 -9 94 -11 8 -2 42 -6 75 -10 33 -3 71 -8 85 -10 14
-2 57 -9 95 -15 279 -42 761 -162 930 -229 11 -5 67 -26 125 -47 333 -120 672
-286 985 -481 107 -66 365 -240 375 -253 3 -3 39 -31 80 -62 121 -91 310 -252
412 -350 16 -16 34 -28 40 -28 6 0 665 654 1465 1453 l1453 1452 -89 86 c-49
47 -110 102 -136 124 -26 21 -57 48 -69 59 -28 27 -238 202 -296 247 -25 19
-49 39 -55 45 -13 15 -347 264 -440 329 -503 351 -1009 645 -1491 866 -38 17
-96 44 -129 59 -261 121 -677 279 -1020 388 -104 33 -199 62 -210 65 -11 3
-67 19 -125 35 -102 30 -360 96 -410 106 -14 2 -74 16 -135 30 -60 13 -123 27
-140 29 -16 3 -50 10 -75 15 -25 6 -65 13 -90 17 -25 3 -52 8 -61 11 -9 2 -32
7 -50 9 -19 3 -45 7 -59 10 -30 6 -128 22 -190 30 -25 3 -52 8 -60 10 -8 2
-42 7 -75 10 -33 3 -71 8 -85 10 -53 9 -287 35 -360 40 -25 2 -72 5 -105 9
-57 5 -172 14 -294 22 -69 5 -968 13 -973 9z"/>
</g>
</svg>
