<?xml version="1.0" standalone="no"?>
<!DOCTYPE svg PUBLIC "-//W3C//DTD SVG 20010904//EN"
 "http://www.w3.org/TR/2001/REC-SVG-20010904/DTD/svg10.dtd">
<svg version="1.0" xmlns="http://www.w3.org/2000/svg"
 width="512.000000pt" height="512.000000pt" viewBox="0 0 512.000000 512.000000"
 preserveAspectRatio="xMidYMid meet">
<metadata>
Created by potrace 1.14, written by Peter Selinger 2001-2017
</metadata>
<g transform="translate(0.000000,512.000000) scale(0.100000,-0.100000)"
fill="#000000" stroke="none">
<path d="M1982 5056 c-9 -17 -15 -36 -14 -43 1 -6 -2 -14 -8 -18 -5 -3 -10
-22 -10 -41 0 -20 -6 -37 -13 -40 -8 -3 -14 -10 -15 -17 -8 -65 -21 -107 -33
-107 -4 0 -6 -9 -4 -20 2 -12 -2 -23 -10 -26 -8 -3 -12 -15 -9 -30 2 -13 0
-24 -5 -24 -7 0 -18 -22 -26 -55 -9 -35 -19 -55 -26 -55 -5 0 -9 -9 -9 -21 0
-13 -4 -18 -12 -13 -6 4 -8 3 -5 -3 7 -11 -11 -74 -23 -83 -10 -8 -23 -44 -21
-57 1 -7 -3 -13 -9 -13 -5 0 -9 -3 -8 -7 3 -14 -13 -53 -20 -49 -4 2 -8 -10
-8 -27 -1 -16 -8 -35 -16 -41 -8 -6 -13 -17 -10 -25 3 -8 0 -11 -6 -7 -6 3 -9
-1 -7 -11 1 -10 -4 -28 -12 -41 -7 -12 -11 -27 -8 -32 3 -6 -1 -10 -10 -10 -9
0 -13 -5 -10 -10 4 -6 1 -18 -7 -27 -11 -14 -11 -16 2 -8 11 6 10 3 -2 -12
-10 -11 -18 -27 -18 -35 0 -9 -5 -18 -11 -20 -6 -2 -13 -13 -14 -23 -4 -37
-17 -65 -26 -59 -6 3 -8 -6 -5 -20 3 -14 0 -28 -5 -32 -13 -7 -43 -76 -40 -91
1 -7 -3 -13 -8 -13 -5 0 -8 -9 -6 -20 2 -11 -1 -20 -6 -20 -6 0 -7 -4 -4 -10
3 -5 1 -10 -5 -10 -7 0 -10 -6 -7 -14 3 -8 0 -17 -8 -19 -7 -3 -16 -19 -20
-36 -4 -17 -10 -31 -15 -31 -5 0 -7 -9 -5 -20 2 -11 0 -20 -6 -20 -5 0 -9 -11
-9 -23 0 -13 -9 -32 -20 -42 -12 -10 -18 -25 -16 -32 3 -7 2 -13 -2 -13 -4 0
-8 -8 -9 -17 -2 -27 -43 -113 -53 -113 -5 0 -7 -7 -4 -15 4 -8 1 -15 -6 -15
-6 0 -9 -4 -6 -8 3 -5 -1 -20 -8 -33 -7 -14 -12 -33 -10 -42 1 -9 -2 -17 -7
-17 -5 0 -9 -7 -9 -15 0 -8 -5 -15 -12 -15 -6 0 -8 -3 -5 -6 3 -4 0 -16 -8
-26 -7 -11 -11 -27 -8 -34 3 -8 0 -14 -6 -14 -6 0 -11 -9 -11 -20 0 -11 -4
-20 -9 -20 -6 0 -8 -9 -6 -20 2 -11 0 -20 -4 -20 -5 0 -12 -11 -15 -25 -4 -14
-11 -23 -16 -20 -5 3 -7 0 -4 -8 3 -8 -6 -38 -19 -68 -22 -48 -37 -84 -42 -99
-3 -9 -38 -85 -51 -112 -8 -14 -14 -33 -14 -42 0 -9 -8 -16 -17 -17 -10 0 -13
-3 -7 -5 13 -6 7 -44 -7 -44 -5 0 -8 -3 -7 -7 1 -5 -4 -19 -11 -32 -7 -13 -8
-21 -2 -17 7 5 9 1 5 -8 -3 -9 -13 -16 -21 -16 -12 0 -13 -3 -4 -14 9 -11 8
-15 -4 -20 -9 -3 -13 -10 -10 -16 3 -6 0 -13 -9 -16 -8 -3 -12 -12 -9 -20 3
-8 0 -21 -7 -29 -7 -8 -9 -15 -4 -15 5 0 3 -4 -4 -9 -12 -7 -19 -27 -21 -59
-1 -8 -6 -10 -13 -6 -7 4 -10 4 -6 0 3 -4 -2 -27 -12 -51 -10 -24 -16 -46 -13
-49 4 -3 2 -6 -4 -6 -9 0 -23 -27 -28 -55 -4 -26 -17 -55 -25 -55 -4 0 -11 -7
-14 -16 -4 -10 -2 -13 7 -8 6 4 3 -2 -7 -14 -11 -12 -17 -25 -13 -28 3 -3 -3
-21 -14 -40 -10 -19 -19 -44 -19 -55 0 -11 -4 -18 -9 -15 -5 3 -12 -10 -15
-29 -4 -19 -11 -35 -16 -35 -6 0 -10 -9 -10 -21 0 -11 -11 -40 -25 -65 -14
-25 -25 -54 -25 -64 0 -11 -5 -20 -11 -20 -5 0 -7 -5 -4 -10 3 -6 0 -13 -9
-16 -8 -3 -12 -12 -9 -19 2 -8 1 -20 -3 -27 -9 -13 -10 -18 -13 -39 0 -5 -6
-7 -13 -3 -8 5 -9 2 -5 -9 3 -10 3 -17 -2 -17 -7 0 -20 -26 -25 -52 0 -4 -10
-14 -21 -22 -11 -8 -17 -18 -13 -21 10 -10 -131 -147 -142 -140 -6 4 -10 1
-10 -4 0 -6 -9 -11 -19 -11 -11 0 -23 -5 -26 -11 -4 -5 -14 -8 -23 -6 -10 2
-28 -2 -42 -8 -14 -6 -46 -11 -72 -10 -57 1 -61 -5 -63 -97 l-2 -68 61 -1 c34
-1 65 0 71 1 5 1 17 2 25 2 60 0 960 0 976 -1 22 -1 40 34 24 44 -7 5 -5 53 5
81 9 30 -14 38 -117 39 -57 0 -109 4 -115 8 -7 4 -33 8 -58 9 -25 0 -45 5 -45
10 0 6 -7 8 -15 4 -8 -3 -18 0 -22 7 -5 7 -17 17 -28 23 -11 6 -20 16 -20 22
0 6 -3 14 -8 18 -12 12 -9 184 4 184 6 0 9 8 7 18 -3 11 0 30 7 42 7 13 11 30
8 37 -3 8 2 13 12 13 14 0 15 3 6 14 -8 10 -9 16 -1 21 6 3 8 11 5 16 -4 5 -1
9 5 9 6 0 10 6 9 12 -2 20 12 58 22 58 4 0 6 9 4 20 -2 11 3 24 12 29 10 5 14
15 10 25 -4 9 -3 15 2 12 5 -3 11 1 15 9 3 8 1 15 -5 15 -5 0 1 16 15 36 13
20 23 45 21 56 -2 10 2 21 10 25 8 3 12 9 9 14 -3 5 0 9 5 9 6 0 11 9 11 20 0
11 5 20 11 20 6 0 8 9 4 20 -4 12 -2 20 5 20 7 0 10 8 7 19 -3 12 3 27 14 37
10 9 19 25 19 36 0 10 5 18 11 18 7 0 10 12 7 29 -3 17 0 29 6 28 5 -1 10 3
11 8 2 27 37 76 51 71 8 -3 14 -2 14 2 0 12 64 9 72 -3 5 -7 8 -7 8 0 0 12 62
11 81 0 8 -6 10 -4 4 4 -6 10 -3 11 14 2 11 -7 21 -8 21 -3 0 10 43 8 61 -4 8
-5 9 -3 5 5 -10 15 25 11 37 -4 5 -7 10 -7 15 0 4 6 21 10 37 10 17 0 33 -4
37 -10 5 -7 8 -7 8 0 0 12 62 11 81 0 8 -6 10 -4 4 4 -6 10 -3 11 14 2 11 -7
21 -8 21 -3 0 10 48 8 57 -2 4 -3 12 -1 20 5 9 9 13 8 13 0 0 -9 5 -9 20 -1
15 8 20 8 20 -2 0 -8 3 -9 8 -3 7 11 48 12 58 2 3 -3 18 -2 33 3 16 4 35 3 46
-2 13 -8 16 -7 10 2 -6 9 -3 9 14 1 11 -7 21 -8 21 -3 0 10 43 8 61 -4 8 -5 9
-3 5 5 -10 15 25 11 37 -4 5 -7 10 -7 15 0 4 6 21 10 37 10 17 0 33 -4 37 -10
5 -7 8 -7 8 0 0 12 62 11 81 0 8 -6 10 -4 4 4 -6 10 -3 11 14 2 11 -7 21 -8
21 -3 0 10 43 8 61 -4 8 -5 9 -3 5 5 -10 15 25 11 37 -4 5 -7 10 -7 15 0 4 6
21 10 37 10 17 0 33 -4 37 -10 5 -6 8 -5 8 3 0 10 5 10 20 2 11 -6 20 -7 20
-3 0 4 15 8 34 8 19 0 32 -4 28 -9 -3 -5 2 -7 11 -3 19 7 41 -17 34 -38 -4 -8
0 -18 8 -22 7 -5 14 -11 15 -15 4 -38 14 -68 22 -68 5 0 7 -4 4 -9 -3 -5 1
-14 10 -21 10 -9 12 -15 4 -20 -8 -5 -6 -12 5 -24 9 -9 13 -16 8 -16 -4 0 -1
-5 7 -10 11 -7 12 -10 2 -10 -10 0 -9 -4 3 -16 9 -9 14 -23 11 -31 -3 -8 -1
-11 4 -8 6 3 10 -5 10 -19 0 -14 5 -26 11 -26 6 0 9 -6 7 -12 -3 -7 1 -19 8
-26 7 -7 11 -21 9 -32 -2 -13 2 -20 11 -20 8 0 13 -3 13 -7 -3 -17 14 -73 22
-73 5 0 6 -7 3 -15 -4 -8 -1 -22 6 -30 6 -8 8 -20 4 -26 -4 -7 -3 -9 3 -6 12
7 26 -20 18 -33 -3 -4 2 -13 10 -20 8 -7 12 -16 9 -21 -3 -5 0 -9 6 -9 6 0 9
-4 6 -9 -4 -5 0 -12 6 -14 10 -4 10 -6 0 -6 -10 -1 -10 -5 2 -17 9 -8 13 -20
10 -26 -4 -6 -1 -14 6 -18 7 -4 13 -22 14 -39 0 -17 4 -31 7 -31 12 0 17 -38
6 -49 -8 -8 -7 -11 2 -11 7 0 9 -4 6 -10 -3 -5 -2 -10 4 -10 14 0 8 -65 -8
-84 -7 -9 -10 -16 -7 -16 4 0 1 -6 -6 -13 -31 -29 -67 -45 -99 -43 -19 1 -40
-3 -47 -8 -7 -5 -62 -10 -123 -11 -70 0 -113 -5 -121 -13 -15 -15 -17 -123 -2
-139 8 -9 63 -12 185 -13 96 0 221 -1 279 -1 58 0 130 0 160 0 30 1 102 0 160
0 89 -1 135 0 240 2 8 0 115 0 237 0 211 -1 223 -2 233 -21 7 -14 7 -20 0 -20
-5 0 -10 -7 -10 -15 0 -8 -4 -15 -10 -15 -5 0 -10 -9 -10 -20 0 -11 -5 -20
-12 -20 -6 0 -8 -3 -5 -7 4 -3 1 -13 -5 -21 -7 -8 -13 -21 -15 -30 -1 -9 -6
-18 -12 -20 -5 -2 -8 -9 -5 -15 2 -7 -4 -22 -15 -34 -11 -11 -17 -24 -14 -27
4 -3 1 -6 -6 -6 -7 0 -9 -4 -6 -10 3 -5 1 -10 -4 -10 -6 0 -11 -3 -10 -7 2
-16 -14 -53 -23 -53 -5 0 -7 -4 -4 -9 3 -5 -1 -14 -10 -21 -12 -11 -12 -15 -2
-21 10 -7 9 -9 -4 -9 -10 0 -24 -16 -34 -40 -10 -22 -22 -40 -27 -40 -4 0 -6
-4 -3 -9 3 -5 -1 -12 -10 -15 -8 -3 -12 -10 -9 -16 3 -5 1 -10 -4 -10 -6 0
-11 -6 -11 -13 0 -7 -8 -22 -18 -33 -10 -10 -19 -21 -19 -24 -7 -27 -21 -49
-43 -71 -14 -14 -24 -31 -22 -37 2 -7 -1 -12 -7 -12 -6 0 -11 -6 -11 -13 0 -7
-9 -23 -19 -34 -11 -12 -17 -24 -14 -27 4 -3 1 -6 -5 -6 -6 0 -13 -9 -17 -20
-3 -11 -20 -33 -36 -50 -17 -16 -27 -30 -23 -30 5 0 3 -5 -4 -12 -14 -14 -16
-68 -3 -68 5 0 8 -11 6 -25 l-2 -25 678 0 c603 0 679 2 679 15 0 9 7 18 15 21
12 5 13 9 3 21 -9 11 -9 16 0 22 6 3 8 12 4 18 -9 15 -3 95 7 89 4 -3 7 24 6
60 0 35 3 64 7 64 4 0 8 29 8 64 0 36 5 68 10 71 6 3 9 33 7 66 -2 34 2 67 8
77 6 9 11 39 10 65 -1 33 3 51 12 54 7 3 10 10 6 16 -4 6 -6 26 -5 43 3 37 -7
43 -66 40 -23 -1 -42 1 -42 5 0 13 -34 4 -57 -15 -17 -15 -20 -23 -12 -33 8
-9 8 -13 1 -13 -6 0 -13 -14 -17 -30 -4 -18 -11 -27 -17 -24 -7 4 -8 2 -4 -5
4 -6 2 -18 -4 -26 -6 -8 -9 -19 -5 -25 3 -5 0 -10 -7 -10 -8 0 -15 -12 -16
-27 -1 -15 -9 -31 -17 -36 -8 -4 -15 -17 -15 -27 0 -13 -5 -18 -15 -14 -11 5
-13 2 -9 -10 8 -21 -62 -92 -88 -88 -10 2 -18 -1 -18 -6 0 -6 -17 -9 -37 -7
-21 1 -47 -3 -58 -9 -23 -13 -494 -14 -514 -1 -10 5 -6 14 13 32 14 13 26 29
26 35 0 6 3 9 6 6 6 -7 64 50 64 62 0 13 113 125 123 122 5 -1 6 2 2 8 -3 5
-3 10 2 10 4 0 17 12 27 27 12 16 14 23 5 18 -8 -5 16 20 52 55 36 36 69 73
72 82 4 10 11 18 17 18 5 0 10 6 10 14 0 7 14 27 30 45 17 17 29 35 26 39 -2
4 8 18 24 30 15 13 31 34 34 48 4 14 11 22 16 19 6 -3 10 1 10 9 0 8 6 21 13
28 6 7 23 36 37 63 14 28 27 52 30 55 12 11 40 60 35 60 -4 0 3 13 14 29 11
15 18 31 14 35 -3 3 -1 6 5 6 7 0 12 8 12 18 0 9 9 34 20 55 11 20 19 40 18
44 0 5 5 22 12 38 7 17 13 42 14 57 0 14 4 24 7 22 10 -6 19 22 14 46 -2 11 1
20 6 20 6 0 7 5 4 10 -3 6 -2 10 4 10 5 0 9 9 8 20 -1 11 -5 20 -11 20 -5 0
-1 9 10 21 10 12 18 23 17 25 -2 2 -3 5 -2 7 5 16 4 47 -2 47 -4 0 -2 11 5 25
8 15 12 54 11 100 -1 44 2 72 8 68 5 -3 5 2 0 13 -5 11 -8 45 -7 77 1 33 -3
57 -8 57 -6 0 -8 14 -6 30 3 17 1 30 -3 30 -4 0 -5 13 -3 29 3 20 0 30 -11 35
-10 3 -13 11 -9 18 10 16 12 78 2 72 -8 -5 -10 11 -11 64 0 12 -3 22 -6 22
-12 0 -31 56 -26 78 2 14 -1 22 -10 22 -8 0 -11 7 -8 20 3 12 0 20 -8 20 -7 0
-10 3 -6 6 3 4 -1 20 -9 36 -8 16 -12 33 -9 38 3 6 2 10 -3 10 -4 0 -14 16
-22 35 -8 19 -16 35 -20 35 -3 0 -6 9 -7 20 -1 11 -11 33 -22 49 -12 16 -21
33 -21 38 0 6 -9 18 -20 28 -11 10 -17 22 -14 26 3 5 -1 12 -9 15 -9 3 -21 19
-27 35 -7 16 -16 29 -20 29 -4 0 -13 13 -20 30 -7 16 -16 28 -20 25 -4 -2 -13
7 -20 20 -7 14 -19 25 -26 25 -10 0 -25 22 -28 41 -2 10 -51 59 -60 59 -5 0
-29 20 -54 45 -24 25 -49 45 -54 45 -5 0 -6 5 -2 12 4 7 3 8 -4 4 -7 -4 -23 3
-36 16 -42 39 -54 47 -60 41 -3 -4 -6 1 -6 10 0 10 -5 14 -14 11 -8 -3 -19 3
-26 15 -6 12 -18 21 -28 21 -9 0 -26 7 -36 15 -10 8 -23 12 -27 9 -5 -3 -9 0
-9 5 0 6 -7 11 -15 11 -8 0 -15 5 -15 11 0 5 -4 8 -9 4 -5 -3 -12 -1 -16 5 -4
6 -11 8 -16 5 -5 -4 -9 -1 -9 4 0 6 -7 11 -15 11 -9 0 -30 7 -46 16 -17 8 -41
17 -52 20 -12 2 -23 8 -25 14 -2 6 -8 8 -13 4 -12 -7 -51 5 -45 14 2 4 -8 8
-22 9 -15 0 -38 4 -52 8 -14 4 -44 10 -67 12 -24 3 -43 8 -43 13 0 4 -8 7 -17
7 -45 0 -64 4 -59 11 2 4 -9 8 -25 7 -16 0 -29 -4 -29 -9 0 -5 -6 -4 -12 1
-15 11 -28 11 -45 0 -7 -5 -13 -4 -13 1 0 5 -14 8 -31 7 -17 -1 -36 3 -42 10
-8 8 -19 10 -34 4 -12 -4 -24 -5 -27 -1 -5 9 -74 7 -83 -2 -4 -3 -12 -1 -20 5
-9 8 -13 8 -13 1 0 -6 -10 -9 -22 -7 -12 3 -27 -3 -34 -13 -7 -9 -14 -12 -14
-6 0 12 -50 14 -50 1 0 -4 -5 -5 -11 -1 -20 12 -72 11 -99 -1 -14 -6 -32 -11
-40 -10 -8 0 -17 -3 -20 -7 -3 -4 -25 -8 -48 -9 -23 -2 -42 -6 -42 -10 0 -4
-9 -6 -20 -4 -11 2 -27 -3 -35 -11 -11 -12 -15 -12 -15 -2 0 8 -3 9 -8 3 -4
-5 -14 -12 -22 -14 -8 -2 -19 -4 -25 -6 -5 -1 -23 -7 -38 -13 -16 -7 -31 -12
-35 -12 -4 0 -37 -16 -74 -35 -38 -19 -68 -31 -68 -28 0 4 -5 2 -12 -5 -7 -7
-20 -12 -31 -12 -10 0 -16 -4 -13 -9 4 -7 -35 -33 -54 -35 -3 -1 -19 -11 -36
-23 -17 -12 -34 -20 -38 -16 -3 3 -6 -1 -6 -10 0 -9 -6 -17 -14 -17 -8 0 -24
-11 -37 -25 -13 -13 -32 -25 -42 -25 -10 0 -15 -4 -12 -10 3 -5 2 -10 -3 -10
-5 0 -34 -25 -66 -55 -31 -30 -54 -55 -51 -55 4 0 0 -7 -9 -15 -8 -8 -18 -15
-22 -15 -11 0 -52 -48 -46 -54 3 -3 -2 -6 -11 -6 -15 0 -22 -11 -18 -32 0 -5
-6 -8 -14 -8 -8 0 -14 -4 -13 -9 2 -5 -10 -22 -27 -38 -16 -17 -31 -36 -33
-44 -2 -8 -9 -17 -15 -21 -7 -4 -8 -8 -4 -8 5 0 1 -7 -7 -16 -9 -8 -16 -22
-16 -30 0 -8 -4 -14 -10 -14 -5 0 -10 -7 -10 -15 0 -8 -5 -15 -11 -15 -5 0 -7
-4 -4 -10 3 -5 1 -10 -5 -10 -6 0 -9 -4 -6 -9 3 -5 -1 -14 -9 -21 -8 -7 -15
-18 -15 -26 0 -7 -6 -19 -13 -26 -15 -14 -17 -20 -17 -44 0 -8 -4 -12 -10 -9
-5 3 -7 0 -4 -8 3 -8 -2 -22 -11 -31 -9 -9 -12 -16 -6 -16 6 0 10 -3 10 -7 -1
-5 -1 -12 0 -18 1 -11 483 -13 516 -2 13 4 21 17 23 34 1 15 5 29 10 32 4 3 7
17 7 31 0 14 6 30 13 35 7 6 14 20 15 33 0 12 6 22 12 22 5 0 3 5 -5 10 -9 6
-10 10 -3 10 6 0 17 16 24 35 7 19 16 35 20 35 4 0 10 12 14 27 3 15 15 35 26
44 11 10 20 20 21 23 0 17 11 46 17 46 3 0 12 9 19 21 11 17 11 20 0 13 -7 -4
36 41 97 102 64 63 116 108 125 106 8 -2 12 -1 8 3 -6 6 42 55 55 55 2 0 36
18 75 39 46 25 73 35 76 27 3 -7 8 -6 15 4 6 8 16 16 23 16 7 1 16 3 21 4 4 1
12 4 17 5 6 1 12 4 15 5 3 1 10 3 15 4 6 0 15 8 20 16 5 8 10 11 10 5 0 -5 11
-10 25 -10 14 0 25 3 25 8 0 4 3 6 8 6 4 -1 9 0 12 1 14 6 366 4 371 -2 3 -4
18 -9 35 -10 16 -1 35 -6 43 -12 12 -9 13 -8 6 4 -8 13 -6 13 8 1 9 -7 24 -11
32 -7 9 3 18 0 21 -8 3 -7 15 -13 27 -12 12 1 24 -1 27 -4 12 -13 101 -53 106
-47 4 3 15 -4 25 -16 10 -12 18 -19 19 -14 0 4 8 -1 18 -10 37 -35 60 -51 66
-46 3 3 8 -2 12 -11 3 -9 11 -16 16 -16 5 0 39 -29 76 -65 36 -36 62 -65 59
-65 -4 0 5 -13 19 -29 14 -16 25 -32 25 -35 -2 -9 43 -51 52 -48 4 1 6 -1 6
-5 -4 -26 2 -43 14 -37 6 4 9 4 5 0 -9 -11 12 -67 22 -61 5 3 7 -4 5 -15 -2
-12 1 -20 10 -20 9 0 12 -6 9 -15 -4 -8 -1 -15 5 -15 6 0 11 -9 11 -20 0 -11
5 -20 11 -20 6 0 9 -6 6 -14 -3 -8 -1 -16 5 -18 11 -4 15 -18 21 -63 1 -11 7
-26 14 -33 7 -7 10 -19 7 -27 -4 -8 -2 -15 4 -15 13 0 21 -59 10 -66 -5 -3 -1
-12 9 -19 10 -7 15 -17 11 -20 -4 -4 -2 -17 4 -29 7 -11 12 -37 13 -56 0 -19
3 -39 6 -45 13 -21 20 -67 9 -60 -6 4 -7 -2 -1 -17 5 -13 5 -33 0 -45 -5 -14
-4 -23 5 -26 9 -4 13 -22 12 -51 -1 -25 3 -46 9 -46 7 0 7 -3 0 -8 -11 -8 -13
-37 -3 -47 4 -4 3 -17 -1 -29 -8 -23 -7 -56 2 -80 4 -9 3 -16 -2 -16 -4 0 -6
-17 -4 -37 2 -21 4 -42 5 -48 0 -5 -3 -23 -7 -40 -16 -66 -21 -135 -11 -138 7
-3 7 -9 -1 -19 -7 -8 -10 -18 -6 -21 3 -4 2 -7 -4 -7 -5 0 -9 -19 -8 -41 1
-23 -3 -46 -10 -52 -6 -6 -9 -23 -7 -39 2 -16 0 -28 -7 -28 -6 0 -8 -7 -5 -15
4 -8 2 -15 -4 -15 -6 0 -8 -9 -5 -20 3 -11 0 -27 -7 -35 -7 -9 -10 -18 -7 -22
4 -3 2 -12 -3 -18 -6 -7 -11 -25 -12 -41 -1 -16 -6 -35 -11 -41 -5 -7 -7 -13
-3 -13 4 0 0 -10 -9 -23 -13 -21 -22 -23 -98 -22 -45 1 -89 5 -97 10 -8 5 -23
8 -33 7 -9 -2 -30 6 -46 17 -15 11 -31 18 -33 15 -5 -4 -29 21 -80 85 -10 12
-18 26 -18 32 0 5 -5 7 -10 4 -5 -3 -10 3 -10 14 0 12 -5 21 -11 21 -5 0 -8 4
-5 9 3 5 -1 15 -10 22 -22 18 -46 68 -39 79 3 6 -1 10 -10 10 -9 0 -14 4 -10
9 3 5 1 12 -5 16 -6 4 -8 11 -5 16 4 5 1 9 -5 9 -7 0 -9 7 -6 17 4 10 4 14 0
10 -10 -10 -47 70 -39 83 3 6 1 10 -4 10 -6 0 -11 7 -11 15 0 8 -5 15 -11 15
-6 0 -9 6 -6 13 2 6 -6 33 -20 60 -13 26 -20 47 -16 47 5 0 -1 7 -11 15 -13
10 -15 15 -6 15 9 0 8 6 -5 20 -10 11 -15 20 -12 20 3 0 0 15 -8 34 -8 18 -11
36 -8 40 4 3 1 6 -6 6 -7 0 -10 4 -6 9 3 5 0 15 -7 23 -7 7 -15 22 -16 33 -2
11 -9 23 -14 26 -7 4 -6 9 1 13 7 5 2 16 -14 31 -14 15 -22 33 -20 45 2 11 1
20 -3 20 -4 0 -12 11 -19 25 -8 19 -8 23 0 18 7 -3 4 3 -7 15 -10 12 -16 28
-13 36 3 8 -1 20 -9 26 -8 7 -14 19 -14 26 0 8 -4 14 -9 14 -6 0 -8 9 -6 20 2
11 -1 20 -6 20 -6 0 -8 4 -4 9 3 5 1 12 -4 16 -6 3 -8 12 -4 20 3 8 1 15 -5
15 -9 0 -19 22 -28 65 -3 10 -10 23 -17 27 -6 4 -8 8 -3 8 5 0 4 6 -1 13 -9
11 -21 47 -29 86 -1 8 -8 17 -14 21 -7 4 -11 10 -11 14 2 19 -13 66 -21 66 -5
0 -7 4 -3 9 3 6 -2 14 -11 19 -11 6 -13 11 -5 16 7 5 6 14 -5 32 -9 13 -14 24
-10 24 3 0 -3 16 -14 35 -11 20 -20 42 -20 50 0 8 -4 15 -10 15 -5 0 -10 9
-10 20 0 11 -9 35 -20 55 -11 19 -17 35 -14 35 4 0 2 6 -3 13 -6 6 -9 22 -8
34 1 13 -1 21 -3 18 -6 -6 -32 43 -32 61 0 17 -21 56 -35 66 -5 4 -6 10 -3 14
16 15 -13 45 -40 43 -15 -2 -33 0 -40 5 -8 5 -11 3 -10 -5 2 -7 -1 -13 -7 -14
-5 0 -14 -3 -20 -6 -5 -4 -22 -9 -37 -13 -16 -3 -28 -11 -28 -16 0 -5 -7 -6
-17 -3 -10 4 -14 2 -10 -4 5 -7 -1 -9 -15 -6 -13 3 -20 2 -15 -2 4 -5 -5 -15
-20 -22 -41 -19 -65 -35 -90 -61 -12 -12 -28 -21 -35 -20 -7 2 -12 -3 -10 -9
1 -7 -2 -13 -7 -13 -12 0 -61 -47 -55 -53 3 -3 -4 -8 -15 -12 -12 -3 -19 -10
-16 -15 3 -4 -2 -10 -10 -14 -8 -3 -15 -10 -15 -16 0 -6 -7 -18 -15 -26 -18
-18 -21 -79 -4 -68 8 5 10 -3 7 -24 -2 -18 0 -30 6 -29 5 1 10 -7 11 -18 0
-11 4 -26 8 -32 5 -7 5 -13 0 -13 -4 0 0 -5 9 -10 10 -6 15 -19 13 -32 -3 -11
-1 -18 2 -14 7 7 33 -60 33 -87 0 -11 4 -15 12 -11 7 5 9 2 5 -9 -3 -9 3 -27
14 -41 11 -14 17 -26 14 -26 -4 0 -2 -6 4 -13 6 -8 8 -17 4 -20 -3 -4 -2 -7 4
-7 5 0 10 -7 10 -15 0 -9 -5 -14 -11 -12 -6 3 -19 0 -28 -5 -12 -6 -18 -5 -18
2 0 8 -6 8 -20 0 -14 -8 -20 -8 -20 0 0 8 -6 8 -20 0 -14 -8 -20 -8 -20 0 0 8
-6 8 -20 0 -14 -8 -20 -8 -20 0 0 8 -6 8 -20 0 -14 -8 -20 -8 -20 0 0 8 -6 8
-20 0 -14 -8 -20 -8 -20 0 0 8 -6 8 -20 0 -14 -8 -20 -8 -20 0 0 7 -6 8 -18 1
-11 -6 -24 -6 -35 0 -9 6 -17 6 -17 2 0 -4 -11 -8 -24 -8 -13 0 -22 3 -19 8 6
10 -5 9 -28 -3 -13 -8 -19 -7 -19 0 0 8 -6 8 -20 0 -14 -8 -20 -8 -20 0 0 8
-6 8 -20 0 -14 -8 -20 -8 -20 0 0 7 -6 8 -17 1 -11 -6 -24 -6 -35 0 -12 7 -18
6 -18 -1 0 -7 -6 -8 -19 0 -14 7 -21 6 -24 -3 -4 -9 -6 -9 -6 1 -1 10 -6 10
-21 2 -14 -8 -20 -8 -20 0 0 7 -6 8 -17 1 -11 -6 -24 -6 -35 0 -12 7 -18 6
-18 -1 0 -7 -6 -8 -19 0 -14 7 -21 6 -24 -3 -4 -9 -6 -9 -6 1 -1 10 -6 10 -21
2 -14 -8 -20 -8 -20 0 0 7 -6 8 -18 1 -11 -6 -24 -6 -35 0 -9 6 -17 6 -17 2 0
-4 -11 -8 -24 -8 -13 0 -22 3 -19 8 6 10 -5 9 -28 -3 -13 -8 -19 -7 -19 0 0 8
-6 8 -20 0 -14 -8 -20 -8 -20 0 0 8 -6 8 -20 0 -14 -8 -20 -8 -20 0 0 8 -6 8
-20 0 -14 -8 -20 -8 -20 0 0 8 -6 8 -20 0 -14 -8 -20 -8 -20 0 0 8 -6 8 -20 0
-14 -8 -20 -8 -20 0 0 8 -6 8 -20 0 -14 -8 -20 -8 -20 0 0 7 -6 8 -19 0 -14
-7 -22 -7 -26 0 -5 7 -11 8 -19 1 -6 -5 -18 -6 -25 -2 -10 7 -9 15 5 42 10 19
18 41 18 49 0 8 3 17 6 20 12 11 30 51 30 65 0 9 4 14 9 11 5 -4 8 2 6 11 -1
10 7 31 18 47 13 18 15 26 6 21 -11 -6 -12 -5 -2 6 7 7 13 20 13 30 0 9 9 28
21 43 11 14 17 26 14 26 -4 0 -2 7 5 15 6 8 9 18 6 24 -3 5 1 12 10 15 9 4 14
13 10 21 -3 8 -1 15 4 15 6 0 10 11 10 25 0 14 5 25 11 25 5 0 8 4 4 9 -3 5 2
17 11 25 8 9 12 16 8 16 -5 0 -3 5 4 12 7 7 12 22 12 35 0 13 4 23 9 23 8 0
24 37 22 53 -1 4 3 7 8 7 5 0 8 11 6 25 -1 14 1 25 6 25 4 0 15 18 25 40 10
22 22 40 27 40 5 0 4 6 -2 14 -9 11 -8 15 4 20 8 3 14 9 13 13 -1 4 3 18 10
31 10 18 10 22 0 22 -8 1 -5 7 6 15 11 8 16 15 11 15 -4 0 -1 8 8 18 10 10 14
22 10 25 -3 4 -1 7 5 7 7 0 12 11 12 25 0 14 5 25 10 25 6 0 10 6 8 13 -1 6 3
21 9 32 11 20 13 27 13 46 0 5 5 7 12 3 6 -4 8 -3 5 3 -3 5 3 26 14 47 11 20
17 41 14 47 -4 5 0 12 9 15 8 3 12 12 9 20 -3 8 0 14 7 14 7 0 10 7 6 15 -3 8
1 20 8 27 7 7 11 19 8 26 -2 6 4 12 13 12 9 0 13 5 10 10 -4 6 -2 17 4 24 7 8
11 18 10 22 -3 11 10 42 30 73 8 13 16 29 18 35 1 6 4 18 6 26 1 8 8 25 15 37
7 12 12 29 12 37 0 37 49 0 50 -36 0 -10 4 -18 9 -18 6 0 8 -9 6 -20 -2 -13 2
-23 11 -27 13 -5 13 -7 2 -14 -9 -6 -9 -9 -1 -9 7 0 17 -10 24 -21 7 -13 7
-19 1 -15 -6 3 -4 -7 4 -24 9 -16 12 -35 8 -42 -4 -7 -4 -10 1 -6 11 10 37
-42 31 -59 -3 -8 1 -16 9 -19 7 -3 11 -12 8 -20 -3 -8 0 -14 7 -14 6 0 8 -4 5
-10 -3 -5 -1 -10 5 -10 6 0 9 -4 6 -8 -3 -5 8 -35 24 -67 20 -40 26 -61 19
-66 -7 -4 -5 -10 7 -17 11 -6 18 -14 17 -19 -5 -14 8 -43 19 -43 5 0 8 -7 5
-15 -4 -8 -2 -17 4 -20 5 -4 7 -10 4 -15 -10 -16 34 -33 51 -20 7 7 20 10 29
6 8 -3 14 -1 12 3 -1 5 0 9 3 8 10 -1 50 24 49 31 -3 19 2 23 16 12 11 -9 18
-8 36 9 12 11 26 18 31 15 4 -3 8 0 8 5 0 6 3 10 8 9 4 0 14 1 22 4 8 4 24 9
35 14 11 4 26 6 33 5 7 -1 11 4 10 11 -2 8 5 12 20 10 12 -2 22 1 22 7 0 6 10
9 22 8 12 -2 33 2 46 9 14 7 31 10 38 7 8 -3 16 1 19 9 3 7 17 13 32 12 14 0
35 8 45 18 20 20 25 43 6 32 -8 -5 -9 -2 -5 9 4 10 0 20 -10 25 -11 7 -12 11
-4 17 9 5 8 12 -5 26 -9 10 -14 19 -10 19 4 0 0 7 -8 16 -9 8 -14 19 -11 24 3
5 -4 25 -16 44 -11 20 -18 36 -15 36 4 0 0 12 -7 28 -8 15 -12 33 -9 41 3 8 0
11 -6 7 -6 -3 -13 -2 -17 4 -3 5 -1 10 5 10 6 0 4 9 -5 23 -8 13 -12 27 -8 30
3 4 1 7 -5 7 -7 0 -12 9 -12 20 0 11 -4 20 -10 20 -5 0 -10 11 -10 24 0 14 -5
28 -11 32 -6 3 -9 15 -6 25 3 11 2 19 -3 19 -7 0 -17 25 -17 40 0 3 -6 16 -13
30 -8 14 -15 27 -15 30 0 3 -9 19 -18 37 -9 18 -17 39 -17 48 0 8 -4 15 -9 15
-5 0 -8 8 -7 17 2 10 -6 33 -16 52 -11 18 -17 39 -14 46 3 8 -2 16 -9 19 -8 3
-12 14 -10 26 2 11 0 20 -6 20 -5 0 -9 9 -9 21 0 13 -4 18 -11 13 -8 -5 -10 1
-7 19 3 15 1 28 -4 29 -4 2 -10 13 -12 25 -3 12 -9 30 -14 40 -5 10 -8 26 -6
36 2 13 -2 17 -12 13 -11 -4 -12 -2 -4 13 7 14 6 20 -6 25 -10 4 -13 13 -9 26
4 12 2 20 -5 20 -6 0 -9 4 -5 9 3 5 1 12 -4 16 -6 3 -8 12 -4 20 3 8 0 15 -7
15 -7 0 -10 8 -7 19 3 12 -5 25 -21 37 -21 16 -44 19 -159 20 l-134 1 -17 -31z"/>
<path d="M1510 2280 c-4 -8 -7 -32 -5 -53 1 -21 -3 -41 -9 -43 -15 -6 -14
-288 2 -307 8 -9 8 -17 1 -24 -7 -7 -8 -13 0 -17 5 -4 8 -13 5 -21 -3 -7 2
-25 11 -38 11 -17 13 -27 6 -32 -8 -4 -6 -15 3 -33 7 -15 13 -38 12 -52 -2
-26 13 -70 23 -70 4 0 8 -14 9 -32 2 -18 8 -35 14 -39 6 -4 8 -11 4 -17 -3 -6
-1 -16 6 -24 7 -7 14 -20 16 -27 2 -8 12 -32 23 -54 10 -23 19 -46 19 -52 0
-7 9 -22 20 -35 11 -13 20 -27 20 -32 0 -19 2 -23 16 -31 8 -5 12 -12 9 -18
-4 -5 -1 -9 5 -9 6 0 9 -4 5 -9 -3 -5 2 -16 10 -24 8 -9 15 -19 15 -24 0 -5 9
-15 19 -23 11 -7 18 -17 16 -21 -3 -4 2 -12 10 -19 8 -7 15 -18 15 -25 0 -7 7
-16 16 -19 9 -3 14 -13 11 -21 -4 -8 1 -16 11 -19 9 -3 23 -15 30 -27 11 -17
11 -20 0 -14 -7 4 5 -10 27 -31 22 -21 45 -37 50 -36 6 2 5 -2 -2 -8 -9 -10 1
-24 43 -64 30 -29 54 -58 54 -64 0 -6 11 -19 25 -30 13 -11 21 -22 18 -26 -3
-3 1 -6 11 -6 9 0 15 -4 11 -9 -3 -5 4 -12 15 -16 11 -3 20 -13 20 -21 0 -8 5
-14 10 -14 13 0 50 -37 50 -49 0 -5 9 -13 20 -16 11 -3 20 -12 20 -20 0 -8 9
-17 20 -20 11 -3 20 -13 20 -21 0 -8 6 -14 13 -14 15 -1 51 -49 43 -57 -3 -4
-113 -7 -243 -7 -175 -1 -247 2 -271 12 -24 9 -32 9 -27 2 6 -9 2 -9 -12 -1
-11 6 -23 7 -27 4 -7 -7 -99 36 -104 50 -2 4 -8 5 -13 2 -5 -4 -6 2 -2 11 4
11 2 15 -4 11 -9 -6 -21 9 -28 36 -2 4 -4 10 -5 15 -1 4 -2 10 -1 14 0 5 -6 8
-14 8 -8 0 -17 11 -21 25 -3 14 -11 25 -16 25 -5 0 -8 6 -5 13 2 6 -7 32 -20
57 -14 24 -27 56 -30 70 -2 14 -8 26 -13 28 -5 2 -6 10 -3 19 4 11 2 14 -5 9
-7 -4 -12 -4 -12 1 0 10 -122 4 -135 -7 -14 -12 -18 -69 -6 -84 5 -6 8 -44 7
-83 -1 -47 3 -73 9 -73 7 0 11 -29 10 -80 -1 -44 2 -80 7 -80 4 0 8 -22 8 -50
0 -27 4 -50 8 -50 5 0 9 -36 9 -81 0 -44 4 -84 9 -87 14 -11 15 -74 1 -65 -9
5 -8 2 0 -9 7 -8 10 -18 7 -21 -4 -3 1 -13 9 -22 14 -13 91 -15 689 -13 635 3
673 4 670 20 -2 10 2 18 8 18 6 0 8 5 5 10 -3 6 -1 10 5 10 6 0 9 4 6 9 -4 5
0 12 6 14 10 4 9 8 -2 16 -8 6 -10 11 -5 11 6 0 3 6 -5 13 -8 7 -15 19 -15 27
0 8 -6 14 -13 12 -8 -1 -11 2 -7 8 3 5 1 10 -5 10 -6 0 -9 4 -5 9 3 6 -3 18
-13 28 -16 16 -33 46 -36 63 -1 3 -13 18 -28 33 -16 16 -28 34 -28 42 0 8 -4
15 -10 15 -5 0 -17 17 -26 38 -10 20 -29 52 -42 70 -13 17 -21 32 -17 32 5 0
-1 8 -11 18 -10 9 -20 24 -22 32 -2 8 -8 17 -13 18 -5 2 -9 12 -9 22 0 10 -7
20 -15 24 -8 3 -15 12 -15 21 0 8 -5 15 -11 15 -6 0 -9 7 -5 15 3 8 2 15 -2
15 -5 0 -14 16 -22 35 -8 19 -18 35 -22 35 -5 0 -7 4 -3 9 3 5 -2 16 -10 24
-8 9 -15 20 -15 25 0 5 -6 15 -14 22 -8 6 -13 17 -10 25 3 7 1 16 -5 20 -6 3
-11 15 -11 26 0 13 -4 18 -12 13 -8 -5 -9 -2 -5 9 4 10 0 20 -11 26 -9 6 -13
11 -8 11 5 0 3 7 -4 15 -7 8 -9 15 -6 15 4 0 0 7 -8 16 -9 8 -14 19 -11 24 3
5 1 10 -5 12 -5 1 -11 12 -14 23 -8 38 -18 65 -25 65 -4 0 -8 12 -9 27 -1 15
-5 29 -10 32 -4 3 -9 15 -10 26 -2 11 -9 23 -14 26 -7 4 -6 9 1 13 8 5 6 12
-4 23 -9 9 -14 22 -11 29 3 8 1 14 -4 14 -6 0 -10 16 -10 35 0 19 -5 35 -11
35 -6 0 -9 9 -6 20 3 11 1 20 -5 20 -5 0 -6 5 -3 10 3 6 3 10 -2 10 -4 0 -9
16 -10 36 -1 20 -6 41 -10 47 -5 7 -8 26 -7 42 1 17 -3 35 -8 42 -5 7 -7 17
-3 23 3 5 1 10 -6 10 -10 0 -10 3 -1 12 7 7 8 17 1 30 -6 11 -6 18 0 18 6 0 5
10 -2 23 -9 16 -12 96 -12 263 l0 240 -273 0 c-235 -1 -275 -3 -282 -16z"/>
</g>
</svg>
